<svg id="Layer_1" data-name="Layer 1" xmlns="http://www.w3.org/2000/svg" viewBox="0 0 40.4 28"><defs><style>.cls-1{fill:#be5a5a;}</style></defs><title>toggler-icon1</title><path class="cls-1" d="M14.47,15.5H36a1.5,1.5,0,0,0,0-3H14.47a1.5,1.5,0,0,0,0,3Z" transform="translate(-5.05 -12.5)"/><path class="cls-1" d="M6.5,28H44a1.5,1.5,0,0,0,0-3H6.5a1.5,1.5,0,0,0,0,3Z" transform="translate(-5.05 -12.5)"/><path class="cls-1" d="M14.47,40.5H36a1.5,1.5,0,0,0,0-3H14.47a1.5,1.5,0,0,0,0,3Z" transform="translate(-5.05 -12.5)"/></svg>